<?xml version="1.0" standalone="no"?>
<!DOCTYPE svg PUBLIC "-//W3C//DTD SVG 1.1//EN" "http://www.w3.org/Graphics/SVG/1.1/DTD/svg11.dtd" >
<svg xmlns="http://www.w3.org/2000/svg">
<metadata>
This is a custom SVG webfont generated by Font Squirrel.
Copyright   : Copyright c 1993 1995 Adobe Systems Incorporated  All Rights ReservedMyriad is a trademark of Adobe Systems Incorporated
</metadata>
<defs>
<font id="AdobeCorporateIDMyriadBold" horiz-adv-x="1136" >
<font-face units-per-em="2048" ascent="1536" descent="-512" />
<missing-glyph horiz-adv-x="413" />
<glyph unicode=" "  horiz-adv-x="413" />
<glyph unicode="&#x09;" horiz-adv-x="413" />
<glyph unicode="&#xa0;" horiz-adv-x="413" />
<glyph unicode="!" horiz-adv-x="548" d="M90 164q0 82 51.5 134t133 52t131 -51t51.5 -135q0 -82 -50.5 -134.5t-132.5 -52.5h-2q-80 0 -131 53.5t-51 133.5zM113 1380h323l-45 -927h-233z" />
<glyph unicode="&#x22;" horiz-adv-x="813" d="M74 1417h274l-45 -555h-184zM467 1417h274l-45 -555h-184z" />
<glyph unicode="#" horiz-adv-x="1126" d="M76 367v188h198l33 231h-172v189h201l53 356h180l-51 -356h189l51 356h182l-51 -356h164v-189h-195l-31 -231h168v-188h-200l-52 -367h-184l53 367h-186l-51 -367h-185l54 367h-168zM457 555h188l31 231h-187z" />
<glyph unicode="$" d="M113 104l61 240q164 -90 340 -90q88 0 143.5 34t55.5 93q0 57 -51.5 98t-167.5 80q-180 59 -274.5 147.5t-94.5 227.5q0 137 92 235.5t254 128.5v195h201v-180q166 -4 299 -68l-62 -231q-150 72 -295 71q-92 0 -134 -33.5t-42 -82.5q0 -47 56.5 -86t189.5 -88 q182 -63 262 -153.5t80 -232t-95 -244t-269 -132.5v-211h-201v196q-203 6 -348 86z" />
<glyph unicode="%" horiz-adv-x="1802" d="M55 936q0 182 102.5 300t270.5 118h2q166 0 261 -110.5t95 -287.5q0 -199 -107.5 -310t-260.5 -111q-156 0 -259.5 109.5t-103.5 291.5zM289 942q-2 -106 34.5 -173t102.5 -67q131 0 131 242q0 240 -133 240h-2q-66 0 -99.5 -68t-33.5 -174zM432 -23l766 1375h166 l-764 -1375h-168zM1016 385q0 180 102.5 298t267.5 118h3q166 0 261 -109.5t95 -283.5q0 -199 -107.5 -312.5t-261.5 -113.5q-156 0 -258 109.5t-102 293.5zM1249 391q-2 -106 34 -172.5t101 -66.5q131 0 132 241q0 240 -132 240h-2q-66 0 -99.5 -66.5t-33.5 -175.5z" />
<glyph unicode="&#x26;" horiz-adv-x="1388" d="M63 369q0 258 263 397v6q-104 115 -105 266q0 145 109.5 255t306.5 110q162 0 267.5 -88t105.5 -236q0 -217 -273 -354v-8q215 -244 230 -258q86 135 116 336h279q-59 -334 -229 -525q154 -174 243 -270h-362q-57 61 -90 98q-156 -121 -379 -121q-236 0 -359 116 t-123 276zM356 420q0 -92 63.5 -154.5t168.5 -62.5h2q115 0 188 69q-86 84 -311 338q-111 -79 -111 -190zM502 1067q0 -98 94 -199q80 55 116 100.5t36 102.5q0 55 -32 96t-89 41h-2q-57 0 -90 -41t-33 -100z" />
<glyph unicode="'" horiz-adv-x="419" d="M74 1417h274l-45 -555h-184z" />
<glyph unicode="(" horiz-adv-x="643" d="M123 586q2 489 233 829h217q-207 -340 -206 -829q0 -477 206 -826h-217q-233 345 -233 826z" />
<glyph unicode=")" horiz-adv-x="643" d="M72 -240q207 344 207 830q0 481 -207 825h217q233 -340 233 -827q-2 -483 -233 -828h-217z" />
<glyph unicode="*" horiz-adv-x="929" d="M61 893v207l320 -66v4l-215 260l182 105l113 -316h4l119 316l178 -103l-219 -262v-4l327 66v-207l-329 55v-4l221 -254l-180 -104l-119 315l-4 -2l-117 -313l-176 104l219 256l-2 4z" />
<glyph unicode="+" horiz-adv-x="1220" d="M82 453v190h428v447h201v-447h428v-190h-428v-453h-201v453h-428z" />
<glyph unicode="," horiz-adv-x="532" d="M2 -244q104 291 150 582l317 20q-113 -346 -258 -583z" />
<glyph unicode="-" horiz-adv-x="659" d="M61 434v207h537v-207h-537z" />
<glyph unicode="." horiz-adv-x="532" d="M102 166q0 84 51.5 137t133.5 53q80 0 130 -52t52 -138q0 -82 -51 -135.5t-133 -53.5h-2q-78 0 -129.5 53.5t-51.5 135.5z" />
<glyph unicode="/" horiz-adv-x="677" d="M33 -82l438 1485h207l-438 -1485h-207z" />
<glyph unicode="0" d="M68 664q0 305 129 497.5t376 192.5q250 0 373 -192.5t123 -489.5q0 -317 -128 -506t-374 -189h-2q-246 0 -370.5 193t-126.5 494zM377 668q-2 -225 48 -340t142 -115h2q186 0 187 455q0 451 -189 450q-90 0 -140 -114.5t-50 -335.5z" />
<glyph unicode="1" d="M174 1167l354 164h256v-1331h-301v1055h-4l-254 -121z" />
<glyph unicode="2" d="M88 0v188l170 154q238 213 336 335t100 232q0 86 -54 140.5t-163 54.5q-137 0 -284 -109l-89 222q178 137 435 137q221 0 344 -116t123 -302q0 -154 -92.5 -289t-262.5 -285l-123 -102v-4h504v-256h-944z" />
<glyph unicode="3" d="M78 70l63 235q147 -82 310 -82q117 0 180 49.5t63 126.5q0 94 -77.5 143.5t-188.5 49.5h-127v223h121q92 0 163.5 38t71.5 116q0 63 -50 101t-146 38q-147 0 -277 -80l-63 225q66 41 177.5 71t233.5 30q205 0 323 -94.5t118 -237.5q0 -227 -244 -309v-4q125 -23 207 -111 t82 -215q0 -178 -147.5 -292t-397.5 -114q-243 1 -395 93z" />
<glyph unicode="4" d="M47 317v203l502 811h383v-780h158v-234h-158v-317h-295v317h-590zM336 551h301v295q0 76 8 248h-6q-111 -219 -125 -248l-176 -291z" />
<glyph unicode="5" d="M86 53l57 234q131 -66 299 -66q109 0 188 52.5t79 150.5q0 223 -375 223q-98 0 -178 -12l86 696h733v-256h-516l-29 -203q57 4 86 5q219 0 350 -97q162 -109 162 -336q0 -195 -155.5 -331t-415.5 -136q-228 0 -371 76z" />
<glyph unicode="6" d="M61 559q0 373 238 594q195 178 512 195q61 6 125 2v-240q-43 2 -121 -4q-193 -14 -299 -101t-135 -217h6q104 104 283 105q174 0 292.5 -117t118.5 -317.5t-139 -341t-350 -140.5q-256 0 -393.5 165t-137.5 417zM371 475q4 -115 59 -191.5t156 -76.5h2q80 0 129 66.5 t49 168.5q0 98 -51 164t-148 66q-61 0 -110 -33t-72 -84q-14 -27 -14 -80z" />
<glyph unicode="7" d="M100 1075v256h940v-194l-548 -1137h-330l549 1071v4h-611z" />
<glyph unicode="8" d="M66 348q0 229 237 334v4q-193 100 -192 293q0 166 133 270.5t334 104.5h2q217 0 328.5 -102.5t111.5 -239.5q0 -197 -195 -293v-6q106 -41 176 -125t70 -205q0 -182 -140 -294t-372 -112q-238 0 -365.5 110.5t-127.5 260.5zM385 379q-2 -76 50 -131t136 -55h2 q80 0 131.5 47t51.5 118q0 162 -209 220q-76 -20 -119 -73.5t-43 -125.5zM410 989q0 -123 186 -180q55 16 95 62.5t40 105.5q0 70 -40 118t-120 48h-2q-76 0 -117.5 -44t-41.5 -110z" />
<glyph unicode="9" d="M61 874q0 199 142.5 339.5t359.5 140.5q246 0 375 -163t129 -411q0 -397 -231 -612q-188 -174 -512 -186q-57 -4 -142 0v243q41 -6 135 0q154 6 265 82q131 86 168 246l-5 2q-96 -96 -270 -96t-294 113.5t-120 301.5zM371 893q0 -90 49 -151.5t139 -61.5q121 0 176 86 q14 29 15 80q2 117 -47.5 198.5t-147.5 81.5h-2q-80 0 -131 -64.5t-51 -168.5z" />
<glyph unicode=":" horiz-adv-x="532" d="M102 164q0 82 51.5 135t131.5 53q82 0 131 -52t51 -136q0 -82 -50 -134.5t-132 -52.5h-2q-80 0 -130.5 53.5t-50.5 133.5zM104 825q0 82 51.5 135.5t131.5 53.5q82 0 131 -52.5t51 -136.5q0 -82 -50 -134t-132 -52h-2q-80 0 -130.5 53t-50.5 133z" />
<glyph unicode=";" horiz-adv-x="532" d="M4 -244q104 287 150 582l313 20q-104 -332 -256 -583zM115 825q0 82 51 135.5t131 53.5q82 0 131 -52.5t51 -136.5q0 -82 -50 -134t-132 -52h-2q-80 0 -130 53t-50 133z" />
<glyph unicode="&#x3c;" horiz-adv-x="1220" d="M119 455v176l985 456v-217l-746 -325v-4l746 -324v-217z" />
<glyph unicode="=" horiz-adv-x="1220" d="M82 242v190h1057v-190h-1057zM82 666v190h1057v-190h-1057z" />
<glyph unicode="&#x3e;" horiz-adv-x="1220" d="M117 0v215l762 326v4l-762 325v217l985 -450v-188z" />
<glyph unicode="?" horiz-adv-x="911" d="M100 1319q143 84 342 84q190 0 292 -91t102 -227q0 -70 -29 -136t-54.5 -100t-78.5 -93q-10 -10 -15 -17q-106 -119 -104 -254v-36h-270l-4 53q-6 170 120 319q119 141 119 215q0 53 -37 86t-110 35q-115 0 -205 -59zM229 164q0 82 51.5 134t131.5 52q82 0 132 -51 t52 -135q0 -82 -50 -134.5t-132 -52.5h-2q-80 0 -131.5 53.5t-51.5 133.5z" />
<glyph unicode="@" horiz-adv-x="1576" d="M102 623q0 209 94.5 386t271.5 285.5t400 108.5q272 0 446.5 -167t174.5 -425q0 -221 -109.5 -355t-279.5 -134q-74 0 -121 39.5t-55 117.5h-4q-100 -158 -267 -157q-100 0 -164.5 72.5t-64.5 195.5q0 197 133 337t348 140q152 0 242 -49l-62 -381q-27 -176 54 -178 q74 -4 136 88t62 258q0 209 -129 341t-360 132q-246 0 -417 -175t-171 -462q0 -252 144.5 -394.5t377.5 -142.5q172 0 299 64l35 -117q-164 -74 -375 -74q-266 0 -452.5 177.5t-186.5 468.5zM631 614q0 -127 100 -127q59 0 110.5 63.5t63.5 151.5l31 195q-33 8 -64 8 q-100 0 -170.5 -86t-70.5 -205z" />
<glyph unicode="A" horiz-adv-x="1343" d="M35 0l422 1380h407l430 -1380h-336l-106 354h-397l-97 -354h-323zM500 588h305l-86 293q-12 49 -38 150.5t-30 115.5h-6q-49 -217 -61 -266z" />
<glyph unicode="B" horiz-adv-x="1236" d="M135 6v1354q154 31 404 31q274 0 409 -78q164 -88 164 -273q0 -94 -57.5 -171.5t-169.5 -120.5v-5q123 -33 198.5 -120.5t75.5 -216.5q0 -178 -143 -295q-158 -125 -543 -125q-199 0 -338 20zM444 223q31 -6 121 -6q117 0 191.5 49t74.5 152q0 98 -77.5 145t-202.5 47 h-107v-387zM444 834h103q123 0 187.5 46t64.5 124q0 160 -221 159q-92 0 -134 -10v-319z" />
<glyph unicode="C" horiz-adv-x="1218" d="M72 672q0 342 214 536.5t539 194.5q229 0 340 -62l-65 -245q-119 51 -262 51q-195 0 -317 -118t-122 -341q0 -209 117 -329.5t324 -120.5q156 0 262 45l45 -246q-123 -59 -352 -60q-346 0 -534.5 194t-188.5 501z" />
<glyph unicode="D" horiz-adv-x="1425" d="M135 6v1354q172 31 420 31q381 0 567 -144q233 -174 234 -524q0 -365 -228 -559q-215 -178 -639 -178q-202 0 -354 20zM446 236q27 -6 109 -7h7q214 0 338 120q126 122 126 364q0 217 -115.5 327.5t-322.5 110.5q-88 0 -142 -12v-903z" />
<glyph unicode="E" horiz-adv-x="1093" d="M137 0v1380h850v-256h-538v-286h507v-254h-507v-328h567v-256h-879z" />
<glyph unicode="F" horiz-adv-x="1079" d="M137 0v1380h842v-256h-530v-315h495v-254h-495v-555h-312z" />
<glyph unicode="G" horiz-adv-x="1396" d="M72 674q2 336 221 528.5t567 192.5q240 0 383 -66l-65 -252q-129 59 -320 60q-205 0 -332 -115t-127 -332q0 -211 120 -331.5t317 -120.5q106 0 151 18v291h-213v244h514v-728q-229 -78 -461 -77q-367 0 -561 184q-194 189 -194 504z" />
<glyph unicode="H" horiz-adv-x="1411" d="M137 0v1380h312v-532h514v532h311v-1380h-311v575h-514v-575h-312z" />
<glyph unicode="I" horiz-adv-x="583" d="M137 0v1380h312v-1380h-312z" />
<glyph unicode="J" horiz-adv-x="841" d="M-2 10l35 252q74 -25 160 -24q106 0 159.5 60t53.5 212v870h311v-872q0 -283 -126 -407t-364 -124q-131 0 -229 33z" />
<glyph unicode="K" horiz-adv-x="1257" d="M135 0v1380h309v-610h5q31 53 96 152l311 458h385l-457 -587l480 -793h-363l-340 596l-117 -145v-451h-309z" />
<glyph unicode="L" horiz-adv-x="1046" d="M137 0v1380h312v-1118h548v-262h-860z" />
<glyph unicode="M" horiz-adv-x="1732" d="M104 0l89 1380h415l135 -462q70 -244 117 -492h8q61 264 131 496l146 458h409l74 -1380h-303l-22 528q-12 332 -13 568h-4q-72 -276 -156 -535l-167 -538h-244l-148 532q-72 258 -125 541h-4q-10 -319 -22 -572l-27 -524h-289z" />
<glyph unicode="N" horiz-adv-x="1413" d="M135 0v1380h365l286 -506q117 -207 226 -473h4q-25 244 -25 578v401h287v-1380h-328l-295 532q-162 295 -239 488h-8q14 -258 14 -604v-416h-287z" />
<glyph unicode="O" horiz-adv-x="1468" d="M72 680q0 313 185 518t486 205q307 0 481.5 -199.5t174.5 -498.5q0 -338 -185.5 -533t-490.5 -195h-2q-299 0 -474 200t-175 503zM399 688q0 -201 90.5 -332t243.5 -131h2q156 0 244 131t88 338q0 195 -88 328t-243.5 133t-246 -133t-90.5 -334z" />
<glyph unicode="P" horiz-adv-x="1189" d="M135 0v1362q168 29 422 29q287 0 424 -113q145 -111 145 -317q0 -213 -125 -328q-158 -145 -450 -146q-68 0 -107 9v-496h-309zM444 735q35 -8 105 -8q125 0 196.5 59.5t71.5 163.5q0 96 -63.5 149.5t-180.5 53.5q-92 0 -129 -10v-408z" />
<glyph unicode="Q" horiz-adv-x="1468" d="M72 678q0 317 185 521t491 204q303 0 477 -201t174 -495q0 -225 -92.5 -388t-233.5 -229v-8q104 -31 332 -78l-88 -242q-242 70 -547 195q-43 16 -94 20q-254 16 -429 199t-175 502zM401 688q0 -203 90.5 -333t243.5 -130h2q156 0 244 131t88 338q0 197 -89 329t-243 132 q-156 0 -246 -133t-90 -334z" />
<glyph unicode="R" horiz-adv-x="1214" d="M135 0v1360q168 31 416 31q311 0 446 -111q129 -100 129 -289q0 -123 -72.5 -213t-170.5 -125v-6q129 -51 184 -256q12 -45 39 -149.5t43 -160.5t29 -81h-320q-37 70 -94 322q-29 127 -78 173t-149 48h-93v-543h-309zM444 768h123q117 0 182.5 53t65.5 145.5t-60.5 141.5 t-168.5 49q-104 0 -142 -10v-379z" />
<glyph unicode="S" horiz-adv-x="1105" d="M82 63l63 256q164 -86 347 -86q106 0 162.5 41t56.5 111q0 61 -53.5 105.5t-178.5 87.5q-381 135 -381 411q0 180 142.5 297t380.5 117q205 0 352 -70l-70 -250q-131 66 -287 66q-96 0 -148 -39t-52 -94q0 -61 55 -100t201 -95q184 -70 270 -169t86 -246 q0 -184 -142.5 -306.5t-412.5 -122.5q-113 0 -220.5 25.5t-170.5 60.5z" />
<glyph unicode="T" horiz-adv-x="1122" d="M31 1118v262h1061v-262h-377v-1118h-312v1118h-372z" />
<glyph unicode="U" horiz-adv-x="1396" d="M135 610v770h311v-792q0 -178 64.5 -269.5t185.5 -91.5q254 0 254 361v792h312v-774q0 -313 -149.5 -471t-426.5 -158q-551 0 -551 633z" />
<glyph unicode="V" horiz-adv-x="1302" d="M18 1380h342l168 -583q88 -309 123 -494h6q49 233 125 488l176 589h332l-465 -1380h-364z" />
<glyph unicode="W" horiz-adv-x="1818" d="M31 1380h334l104 -567q33 -176 82 -485h4q25 166 90 489l117 563h332l110 -581q41 -213 74 -463h4q10 84 80 481l113 563h317l-356 -1380h-338l-117 594q-47 244 -66 426h-4q-41 -262 -80 -426l-131 -594h-342z" />
<glyph unicode="X" horiz-adv-x="1255" d="M33 0l399 698l-385 682h359l120 -252q57 -119 105 -229h4q33 90 94 229l117 252h356l-389 -673l410 -707h-361l-125 250q-25 49 -123 248h-4q-25 -68 -108 -248l-113 -250h-356z" />
<glyph unicode="Y" horiz-adv-x="1234" d="M18 1380h359l139 -331q70 -160 107 -265h4q33 94 104 265l139 331h351l-455 -805v-575h-311v565z" />
<glyph unicode="Z" horiz-adv-x="1181" d="M49 0v168l658 948v6h-598v258h1001v-180l-643 -934v-8h653v-258h-1071z" />
<glyph unicode="[" horiz-adv-x="643" d="M139 -229v1632h418v-172h-195v-1288h195v-172h-418z" />
<glyph unicode="\" horiz-adv-x="700" d="M25 1403h206l437 -1485h-207z" />
<glyph unicode="]" horiz-adv-x="643" d="M86 -57h195v1288h-195v172h418v-1632h-418v172z" />
<glyph unicode="^" horiz-adv-x="1220" d="M88 362l428 969h191l428 -969h-224l-299 730h-6l-299 -730h-219z" />
<glyph unicode="_" horiz-adv-x="1024" d="M0 -154h1024v-102h-1024v102z" />
<glyph unicode="`" horiz-adv-x="614" d="M8 1434h287l176 -312h-213z" />
<glyph unicode="a" horiz-adv-x="1081" d="M59 285q0 190 157 286.5t431 96.5v12q0 129 -182 129q-152 0 -277 -74l-57 199q162 90 389 90q233 0 335.5 -119t102.5 -313v-350q0 -168 17 -242h-281l-18 100h-6q-100 -123 -287 -123q-145 0 -234.5 91.5t-89.5 216.5zM367 315q0 -57 33.5 -87.5t89 -30.5t100.5 32.5 t61 81.5q6 25 6 54v108q-290 0 -290 -158z" />
<glyph unicode="b" horiz-adv-x="1224" d="M117 0q8 131 8 299v1155h311v-571h4q98 141 303 141q182 0 298 -139.5t114 -366.5q0 -256 -135 -398.5t-322 -142.5q-207 0 -301 162h-4l-12 -139h-264zM436 426q0 -31 6 -55q16 -63 66.5 -105.5t116.5 -42.5q100 0 157.5 74t57.5 209q0 123 -55.5 200.5t-159.5 77.5 q-63 0 -115.5 -43t-67.5 -110q-6 -29 -6 -58v-147z" />
<glyph unicode="c" horiz-adv-x="923" d="M68 492q0 229 151.5 380.5t421.5 151.5q133 0 238 -39l-50 -231q-70 31 -174 30q-123 0 -196.5 -78.5t-71.5 -201.5q0 -133 78 -208t197 -75q102 0 178 33l37 -229q-98 -47 -279 -48q-244 0 -387 139.5t-143 375.5z" />
<glyph unicode="d" horiz-adv-x="1220" d="M68 499q0 238 129 381q131 144 319.5 144t263.5 -113h4v543h312v-1155q0 -164 8 -299h-277l-12 145h-6q-45 -80 -129 -124t-184 -44q-182 0 -305 142.5t-123 379.5zM383 500q0 -125 58.5 -200t154.5 -75q68 0 118 42t64 108q6 31 6 69v131q0 39 -4 58q-14 66 -63 108.5 t-119 42.5q-102 0 -158.5 -79.5t-56.5 -204.5z" />
<glyph unicode="e" horiz-adv-x="1081" d="M68 492q0 211 132 372.5t373 161.5q225 0 336 -145.5t111 -354.5q0 -63 -10 -125l-645 2q8 -94 86.5 -143t195.5 -49q152 0 277 43l41 -211q-152 -63 -363 -63q-254 0 -394 137t-140 375zM362 616h369q0 74 -40 138.5t-134 64.5q-90 0 -138.5 -63.5t-56.5 -139.5z" />
<glyph unicode="f" horiz-adv-x="698" d="M29 772v229h133v39q0 219 125 336q109 100 278 101q78 0 164 -21l-12 -239q-47 14 -101 14q-74 0 -109.5 -49t-35.5 -129v-52h201v-229h-199v-772h-311v772h-133z" />
<glyph unicode="g" horiz-adv-x="1198" d="M68 496q0 238 132 383t322 145q186 0 275 -141h4l10 118h270q-8 -131 -8 -299v-557q0 -315 -153 -450q-141 -123 -406 -123q-221 0 -360 76l61 237q131 -76 291 -75q117 0 188.5 65.5t71.5 198.5v63h-4q-94 -129 -270 -129q-186 0 -305 136.5t-119 351.5zM383 504 q0 -117 54.5 -191.5t148.5 -74.5q59 0 104 34.5t62 89.5q10 31 10 84v148q0 29 -6 57q-16 63 -60.5 100t-107.5 37q-88 0 -146.5 -75.5t-58.5 -208.5z" />
<glyph unicode="h" horiz-adv-x="1200" d="M125 0v1454h311v-573h4q49 68 123 104q74 39 162 39q158 0 254 -111.5t96 -328.5v-584h-311v551q0 221 -162 221q-113 0 -156 -110q-10 -23 -10 -68v-594h-311z" />
<glyph unicode="i" horiz-adv-x="561" d="M106 1298q0 72 49.5 119t127 47t125 -47t49.5 -119q0 -72 -48.5 -118.5t-127.5 -46.5h-2q-78 0 -125.5 47.5t-47.5 117.5zM125 0v1001h311v-1001h-311z" />
<glyph unicode="j" horiz-adv-x="595" d="M-80 -195q131 10 184 66q61 63 62 326v804h311v-880q0 -307 -141 -436q-135 -123 -385 -123zM145 1298q0 72 49.5 119t127 47t125 -47t49.5 -119q0 -72 -48.5 -118.5t-128.5 -46.5h-2q-76 0 -124 47.5t-48 117.5z" />
<glyph unicode="k" horiz-adv-x="1110" d="M125 0v1454h311v-876h4q33 61 72 120l203 303h375l-359 -405l410 -596h-383l-244 412l-78 -101v-311h-311z" />
<glyph unicode="l" horiz-adv-x="561" d="M125 0v1454h311v-1454h-311z" />
<glyph unicode="m" horiz-adv-x="1761" d="M117 1001h264l12 -137h6q104 160 303 160q96 0 169 -46t106 -126h4q59 82 131 123q88 49 191 49q152 0 244.5 -109.5t92.5 -324.5v-590h-303v543q0 229 -147 229q-104 0 -146 -108q-10 -37 -10 -78v-586h-303v561q0 211 -145 211q-55 0 -92 -32.5t-54 -77.5 q-12 -29 -12 -80v-582h-303v682q0 139 -8 319z" />
<glyph unicode="n" horiz-adv-x="1200" d="M117 1001h270l14 -139h7q39 63 117.5 112.5t191.5 49.5q162 0 260 -109.5t98 -322.5v-592h-311v555q0 217 -158 217q-115 0 -160 -117q-10 -25 -10 -77v-578h-311v682q0 139 -8 319z" />
<glyph unicode="o" horiz-adv-x="1181" d="M68 494q0 242 146 386t390 144q227 0 368.5 -143.5t141.5 -370.5q0 -258 -154.5 -395.5t-371.5 -137.5h-2q-225 0 -371.5 139.5t-146.5 377.5zM387 500q0 -131 53.5 -215t149.5 -84h2q92 0 145.5 82t53.5 219q0 123 -50.5 211t-148.5 88q-102 0 -153.5 -88t-51.5 -213z " />
<glyph unicode="p" horiz-adv-x="1224" d="M117 1001h270l14 -139h5q115 162 333 162q172 0 294 -139.5t122 -370.5q0 -256 -135 -396.5t-320 -140.5q-180 0 -260 115h-4v-498h-311v1072q0 147 -8 335zM436 430q0 -35 6 -65q16 -63 66.5 -105.5t116.5 -42.5q100 0 157.5 77t57.5 206q0 125 -55.5 202.5t-155.5 77.5 q-66 0 -119 -44t-68 -113q-6 -25 -6 -56v-137z" />
<glyph unicode="q" horiz-adv-x="1218" d="M68 487q0 252 133 394.5t309 142.5q195 0 281 -139h4l8 116h299q-6 -289 -6 -301v-1106h-312v533h-4q-98 -150 -299 -150q-170 0 -291.5 140.5t-121.5 369.5zM383 500q0 -127 57.5 -202t155.5 -75q66 0 115 40t65 102q8 27 8 67v150q0 29 -6 49q-12 63 -61 106t-119 43 q-102 0 -158.5 -77.5t-56.5 -202.5z" />
<glyph unicode="r" horiz-adv-x="778" d="M119 1001h266l12 -186h9q37 102 112.5 155.5t157.5 53.5q33 0 65 -6v-293q-53 8 -86 8q-86 0 -141 -42t-72 -116q-6 -31 -6 -69v-506h-311l2 672q0 214 -8 329z" />
<glyph unicode="s" horiz-adv-x="888" d="M68 49l55 221q47 -29 125 -51t143 -22q133 0 133 82q0 39 -29.5 63.5t-115.5 52.5q-150 49 -219.5 127t-67.5 172q0 143 112.5 236.5t295.5 93.5q162 0 280 -59l-53 -213q-111 55 -217 55q-119 0 -119 -80q0 -37 34 -60.5t128 -56.5q141 -47 204.5 -121.5t65.5 -185.5 q0 -147 -111.5 -236.5t-320.5 -89.5q-190 0 -323 72z" />
<glyph unicode="t" horiz-adv-x="751" d="M35 772v229h133v189l305 84v-273h223v-229h-223v-364q0 -92 27.5 -134.5t95.5 -42.5q53 0 92 9l2 -236q-72 -27 -201 -27q-150 0 -235 86q-86 88 -86 297v412h-133z" />
<glyph unicode="u" horiz-adv-x="1193" d="M121 414v587h311v-538q0 -233 158 -234q59 0 99 33t56 76q12 27 13 68v595h311v-679q0 -154 8 -322h-270l-14 141h-7q-104 -164 -313 -164q-162 0 -257 108t-95 329z" />
<glyph unicode="v" horiz-adv-x="1085" d="M18 1001h338l136 -464q25 -84 57 -244h6q27 137 55 244l129 464h328l-373 -1001h-311z" />
<glyph unicode="w" horiz-adv-x="1554" d="M23 1001h317l82 -411q41 -229 55 -328h6q8 45 72 326l107 413h245l101 -399q53 -213 73 -340h4q20 160 60 342l84 397h305l-307 -1001h-291l-94 350q-37 133 -66 314h-4q-25 -164 -63 -312l-101 -352h-293z" />
<glyph unicode="x" horiz-adv-x="1062" d="M6 0l340 510l-332 491h348l99 -167q29 -51 82 -150h4q39 80 78 156l88 161h338l-330 -477l334 -524h-353l-100 180q-45 78 -78 152h-6l-76 -152l-94 -180h-342z" />
<glyph unicode="y" horiz-adv-x="1071" d="M12 1001h346l150 -491q37 -137 49 -186h6q8 31 23.5 98t21.5 88l123 491h334l-234 -659q-102 -287 -183 -431t-169 -224q-135 -121 -301 -138l-65 263q66 14 135 53q80 43 129 125q16 27 16 45q0 23 -12 51z" />
<glyph unicode="z" horiz-adv-x="960" d="M45 0v180l315 393q100 115 160 177v4h-440v247h819v-188l-301 -379q-131 -152 -164 -182v-4h481v-248h-870z" />
<glyph unicode="{" horiz-adv-x="643" d="M61 510v156q94 4 125 41.5t31 97.5q0 27 -10 160q-12 111 -12 161q0 276 311 277h72v-174h-37q-125 -2 -125 -146q0 -47 10 -114q10 -109 10 -142q2 -111 -41 -164t-133 -73v-4q90 -18 133 -71.5t41 -166.5q0 -37 -10 -143q-10 -68 -10 -115q0 -145 125 -147h37v-172h-74 q-309 0 -309 278q0 51 12 162q10 137 10 160q0 133 -156 139z" />
<glyph unicode="|" horiz-adv-x="579" d="M180 -512v2048h217v-2048h-217z" />
<glyph unicode="}" horiz-adv-x="643" d="M66 -57h36q125 2 125 147q0 47 -10 115q-10 106 -10 143q-2 113 41 166t133 72v4q-90 20 -133 73.5t-41 163.5q0 33 10 142q10 68 10 114q0 143 -125 146h-36v174h71q311 0 312 -277q0 -25 -11 -161q-12 -106 -12 -160q0 -37 8 -62.5t45 -50t103 -26.5v-156 q-156 -6 -156 -139q0 -49 12 -160q10 -137 11 -162q0 -279 -310 -278h-73v172z" />
<glyph unicode="~" horiz-adv-x="1220" d="M88 395q-2 195 75 288t210 93q70 0 130 -21.5t156 -76.5q147 -80 197 -80q76 0 82 166h195q8 -205 -68 -295t-205 -90q-115 0 -287 98q-147 84 -194 84q-86 0 -96 -166h-195z" />
<glyph unicode="&#xa1;" horiz-adv-x="548" d="M92 823q0 82 51.5 134.5t132.5 52.5h3q80 0 130 -52.5t50 -134.5q-2 -82 -51.5 -134t-131 -52t-133 52t-51.5 134zM113 -391l45 923h233l45 -923h-323z" />
<glyph unicode="&#xa2;" d="M154 672q0 190 110.5 331.5t306.5 178.5v196h201v-186q102 -4 195 -41l-49 -229q-70 37 -183 36q-121 0 -192.5 -75.5t-71.5 -200.5q0 -131 76 -202.5t190 -71.5q106 0 203 36l37 -225q-82 -39 -205 -47v-195h-201v201q-188 27 -305 156q-112 131 -112 338z" />
<glyph unicode="&#xa3;" d="M104 0v166q90 37 160 120t70 181q0 55 -6 82h-201v213h164q-16 82 -17 166q0 193 128 309.5t335 116.5q150 0 240 -49l-49 -236q-68 37 -174 37q-190 0 -191 -193q0 -59 19 -151h282v-213h-254q0 -84 -18 -146q-31 -84 -100 -145v-4h546v-254h-934z" />
<glyph unicode="&#xa4;" d="M37 1083l137 142l158 -174q94 76 235 75h2q141 0 238 -73l156 172l137 -140l-178 -159q66 -113 65 -238q0 -145 -72 -246l175 -166l-136 -137l-149 180q-98 -82 -240 -81q-147 0 -237 77l-148 -176l-133 137l170 162q-74 102 -74 244q0 133 72 244zM379 684 q0 -113 58.5 -175.5t129.5 -62.5q76 0 132.5 61.5t56.5 178.5q0 100 -53.5 166t-135.5 66h-2q-80 0 -133 -65t-53 -169z" />
<glyph unicode="&#xa5;" d="M4 1331h334l143 -327q18 -39 86 -224h4q2 6 35 92t53 134l146 325h328l-351 -581h244v-146h-321v-131h321v-145h-321v-328h-293v328h-320v145h320v131h-320v146h246z" />
<glyph unicode="&#xa6;" horiz-adv-x="579" d="M180 356h217v-716h-217v716zM180 664v716h217v-716h-217z" />
<glyph unicode="&#xa7;" horiz-adv-x="1148" d="M92 647q0 70 44 139.5t126 110.5q-35 27 -58.5 79t-23.5 107q0 150 126 234t321 84q186 0 323 -62l-49 -188q-123 57 -270 57q-88 0 -135 -26.5t-47 -71.5t51 -77t168 -66q193 -59 291 -136t98 -223q0 -152 -148 -250q90 -72 90 -190q0 -117 -76.5 -194.5t-174 -105.5 t-203.5 -28q-240 0 -383 90l59 191q143 -86 311 -86q84 0 134.5 26.5t50.5 77.5q0 49 -48 82t-169 72q-197 61 -302.5 138t-105.5 216zM334 700q0 -96 178 -157q215 -76 240 -88q61 37 61 108q0 92 -141 148q-29 10 -88.5 31.5t-104.5 38t-71 30.5q-74 -39 -74 -109v-2z" />
<glyph unicode="&#xa8;" horiz-adv-x="614" d="M-41 1260q0 59 41 99t100 40q57 0 96.5 -40t39.5 -99q0 -57 -39 -98.5t-97 -41.5h-2q-57 0 -98 41.5t-41 98.5zM377 1260q0 59 40 99t99 40t98 -40t39 -99q0 -57 -39 -98.5t-98 -41.5h-2q-59 0 -98 41.5t-39 98.5z" />
<glyph unicode="&#xa9;" horiz-adv-x="1386" d="M66 696q0 262 184 446.5t446 184.5h2q260 0 441.5 -184.5t181.5 -446.5q0 -264 -182.5 -449.5t-442.5 -185.5q-262 0 -446 185.5t-184 449.5zM203 694q0 -217 143 -366.5t350 -149.5q205 -2 348.5 148.5t143.5 367.5q0 215 -143.5 365.5t-348.5 150.5h-2 q-205 0 -348 -150.5t-143 -365.5zM348 684q0 170 118 275.5t277 105.5q74 0 140.5 -17.5t87.5 -39.5l-31 -111q-72 47 -197 47q-119 0 -185 -67.5t-66 -186.5q0 -111 70.5 -183.5t180.5 -72.5q129 0 205 51l31 -106q-100 -66 -254 -66q-174 0 -275.5 104.5t-101.5 266.5z " />
<glyph unicode="&#xaa;" horiz-adv-x="774" d="M66 735q0 117 108.5 177.5t298.5 60.5v14q0 8 -5 19.5t-16.5 26t-39 23.5t-66.5 9q-109 0 -190 -53l-41 133q113 66 272 65q156 0 228.5 -80.5t72.5 -205.5v-219q0 -94 10 -160h-190l-14 67h-5q-84 -80 -204 -77q-98 0 -158.5 57t-60.5 143zM276 754q0 -35 26 -57.5 t65 -22.5q33 0 62.5 17.5t39.5 43.5q10 20 10 45v72q-88 2 -145.5 -22.5t-57.5 -75.5z" />
<glyph unicode="&#xab;" horiz-adv-x="952" d="M53 516l238 391h217l-246 -391l246 -389h-217zM451 516l237 391h217l-246 -391l246 -389h-217z" />
<glyph unicode="&#xac;" horiz-adv-x="1220" d="M82 674v190h1057v-647h-199v457h-858z" />
<glyph unicode="&#xad;" horiz-adv-x="659" d="M61 434v207h537v-207h-537z" />
<glyph unicode="&#xae;" horiz-adv-x="1044" d="M63 942q0 190 135.5 325.5t325.5 135.5h2q190 0 323.5 -135t133.5 -326q0 -195 -133 -329t-326 -134q-190 0 -325.5 135t-135.5 328zM174 940q0 -156 102.5 -262.5t247.5 -106.5q145 -2 249 105.5t104 263.5q0 154 -103.5 262.5t-249.5 108.5h-2q-143 0 -245.5 -108.5 t-102.5 -262.5zM336 674v512q96 14 164 14q123 0 176 -41q45 -35 45 -110q0 -45 -27.5 -77t-70.5 -42v-4q70 -12 82 -125q12 -94 28 -127h-112q-14 20 -31 133q-12 78 -96 78h-50v-211h-108zM444 969h52q113 0 112 73q0 76 -104 76q-45 0 -60 -2v-147z" />
<glyph unicode="&#xaf;" horiz-adv-x="614" d="M53 1194v160h512v-160h-512z" />
<glyph unicode="&#x2c9;" horiz-adv-x="614" d="M53 1194v160h512v-160h-512z" />
<glyph unicode="&#xb0;" horiz-adv-x="729" d="M55 1098q-2 127 89.5 216t222.5 89h2q135 0 222 -88t87 -211q0 -129 -92 -216t-221 -87q-133 0 -221.5 86t-88.5 211zM221 1099.5q0 -65.5 42 -110.5t105.5 -45t105.5 45t42 113q0 63 -40 110.5t-107 47.5h-2q-63 0 -104.5 -47.5t-41.5 -113z" />
<glyph unicode="&#xb1;" horiz-adv-x="1220" d="M82 0v190h1057v-190h-1057zM82 641v190h428v355h201v-355h428v-190h-428v-362h-201v362h-428z" />
<glyph unicode="&#xb2;" horiz-adv-x="770" d="M70 545v117l127 112q164 147 198 195q39 51 39 100q0 45 -31.5 71.5t-89.5 26.5q-92 0 -176 -57l-61 156q121 88 299 88q147 0 229 -70t82 -178q0 -51 -17.5 -98t-56.5 -91.5t-71.5 -73t-89.5 -75.5l-50 -41v-4h299v-178h-630z" />
<glyph unicode="&#xb3;" horiz-adv-x="763" d="M59 592l47 160q96 -53 201 -54q63 0 104.5 27t41.5 66q0 49 -51.5 75.5t-125.5 26.5h-61v139h57q61 0 109.5 20.5t48.5 63.5q0 74 -108 74q-94 0 -187 -51l-43 149q113 66 287 66q141 0 218 -57.5t77 -145.5q0 -129 -168 -182v-4q86 -8 142.5 -59.5t56.5 -127.5 q0 -109 -100.5 -176t-268.5 -67q-173 0 -277 57z" />
<glyph unicode="&#xb4;" horiz-adv-x="614" d="M154 1122l176 312h286l-249 -312h-213z" />
<glyph unicode="&#xb5;" horiz-adv-x="1193" d="M121 -406v1407h311v-534q0 -233 160 -234q66 0 111 45.5t55 100.5v622h311v-679q0 -154 8 -322h-270l-14 145h-7q-33 -61 -98 -111t-158 -50q-102 0 -149 63h-6l24 -453h-278z" />
<glyph unicode="&#x3bc;" horiz-adv-x="1193" d="M121 -406v1407h311v-534q0 -233 160 -234q66 0 111 45.5t55 100.5v622h311v-679q0 -154 8 -322h-270l-14 145h-7q-33 -61 -98 -111t-158 -50q-102 0 -149 63h-6l24 -453h-278z" />
<glyph unicode="&#xb6;" horiz-adv-x="1110" d="M66 924q-2 90 24.5 165.5t89 146.5t188.5 112t302 41q193 0 293 -23v-1462h-197v1292h-148v-1292h-196v637h-12q-66 0 -141.5 38.5t-138 131t-64.5 213.5z" />
<glyph unicode="&#xb7;" horiz-adv-x="532" d="M84 551q0 84 51 137t133 53q80 0 130.5 -53t52.5 -137q0 -82 -51.5 -135.5t-133.5 -53.5h-2q-78 0 -129 53.5t-51 135.5z" />
<glyph unicode="&#x2219;" horiz-adv-x="532" d="M84 551q0 84 51 137t133 53q80 0 130.5 -53t52.5 -137q0 -82 -51.5 -135.5t-133.5 -53.5h-2q-78 0 -129 53.5t-51 135.5z" />
<glyph unicode="&#xb8;" horiz-adv-x="614" d="M94 -377l41 115q55 -33 113 -33q72 0 71 53q0 61 -159 74l88 176h168l-56 -98q61 -8 104.5 -49t43.5 -101q0 -92 -70.5 -135t-179.5 -43q-96 0 -164 41z" />
<glyph unicode="&#xb9;" horiz-adv-x="751" d="M109 1245l227 98h209v-798h-240v604h-2l-164 -72z" />
<glyph unicode="&#xba;" horiz-adv-x="790" d="M49 866q0 154 97.5 249t250.5 95h2q154 0 248 -93t94 -238q0 -166 -102 -255t-247.5 -89t-244 90.5t-98.5 240.5zM270 868q0 -76 35 -129t92 -53q59 0 92 52.5t33 135.5q0 72 -33.5 128.5t-93.5 56.5h-2q-61 0 -92 -58.5t-31 -132.5z" />
<glyph unicode="&#xbb;" horiz-adv-x="952" d="M47 127l244 389l-244 391h213l240 -391l-238 -389h-215zM440 127l244 389l-244 391h213l240 -391l-240 -389h-213z" />
<glyph unicode="&#xbc;" horiz-adv-x="1701" d="M74 1245l227 98h209v-798h-240v604h-2l-164 -72zM354 -23l756 1377h170l-756 -1377h-170zM899 184v129l350 494h273v-471h108v-152h-108v-184h-222v184h-401zM1116 338l4 -2h180v151q0 31 4.5 84.5t4.5 67.5h-4q-61 -115 -74 -133z" />
<glyph unicode="&#xbd;" horiz-adv-x="1701" d="M49 1245l227 98h209v-798h-239v604h-2l-164 -72zM307 -23l754 1377h170l-754 -1377h-170zM993 0v117l127 112q164 147 199 195q39 51 39 100q0 45 -32 72t-89 27q-92 0 -176 -58l-62 156q121 88 299 88q147 0 229.5 -69.5t82.5 -178.5q0 -51 -17.5 -98t-56.5 -91 t-71.5 -73t-90.5 -76l-49 -41v-4h299v-178h-631z" />
<glyph unicode="&#xbe;" horiz-adv-x="1701" d="M55 592l47 160q88 -53 201 -54q63 0 104.5 27t41.5 66q0 49 -51.5 75.5t-125.5 26.5h-61v139h57q61 0 109.5 20.5t48.5 63.5q0 74 -109 74q-94 0 -186 -51l-43 149q113 66 287 66q141 0 218 -57.5t77 -145.5q0 -129 -168 -182v-4q86 -8 142 -59.5t56 -127.5 q0 -109 -100 -176t-268 -67q-173 0 -277 57zM422 -23l752 1377h169l-753 -1377h-168zM918 184v129l350 494h272v-471h109v-152h-109v-184h-221v184h-401zM1135 338l4 -2h180v151q0 31 4 84.5t4 67.5h-4q-61 -115 -74 -133z" />
<glyph unicode="&#xbf;" horiz-adv-x="911" d="M88 -96q0 70 28.5 136t54.5 100t79 93q10 10 14 17q106 119 105 254v37h270l4 -54q6 -170 -121 -319q-119 -141 -119 -215q0 -53 37 -86t111 -35q117 0 205 62l67 -224q-143 -84 -342 -84q-190 0 -291.5 91.5t-101.5 226.5zM326 823q0 82 50 134.5t132 52.5h2 q80 0 130 -52.5t50 -134.5t-50 -134t-132 -52t-132 52t-50 134z" />
<glyph unicode="&#xc0;" horiz-adv-x="1343" d="M35 0l422 1380h407l430 -1380h-336l-106 354h-397l-97 -354h-323zM301 1714h324l178 -256h-246zM500 588h305l-86 293q-12 49 -38 150.5t-30 115.5h-6q-49 -217 -61 -266z" />
<glyph unicode="&#xc1;" horiz-adv-x="1343" d="M35 0l422 1380h407l430 -1380h-336l-106 354h-397l-97 -354h-323zM500 588h305l-86 293q-12 49 -38 150.5t-30 115.5h-6q-49 -217 -61 -266zM532 1454l179 258h323l-256 -258h-246z" />
<glyph unicode="&#xc2;" horiz-adv-x="1343" d="M35 0l422 1380h407l430 -1380h-336l-106 354h-397l-97 -354h-323zM358 1454l209 258h221l211 -258h-217l-102 135h-4l-103 -135h-215zM500 588h305l-86 293q-12 49 -38 150.5t-30 115.5h-6q-49 -217 -61 -266z" />
<glyph unicode="&#xc3;" horiz-adv-x="1343" d="M35 0l422 1380h409l430 -1380h-335l-107 354h-399l-97 -354h-323zM389 1464q-4 125 38 189.5t118 64.5q66 0 133 -41q66 -39 92.5 -39t37.5 18.5t17 69.5h140q6 -250 -162 -249q-63 0 -133 39q-66 37 -90 36q-43 0 -50 -88h-141zM500 588h307l-86 293q-10 31 -70 266h-4 q-4 -16 -28.5 -117.5t-36.5 -148.5z" />
<glyph unicode="&#xc4;" horiz-adv-x="1343" d="M37 0l422 1380h405l430 -1380h-336l-106 354h-395l-99 -354h-321zM332 1597q0 59 41 99.5t100 40.5q55 0 94 -40t39 -100q0 -55 -39 -96t-94 -41h-2q-57 0 -98 41t-41 96zM502 588h303l-84 293q-10 31 -70 266h-4q-6 -27 -28.5 -124t-34.5 -142zM748 1597q0 59 39.5 99.5 t99.5 40.5q57 0 96 -40t39 -100q0 -55 -39 -96t-96 -41h-2q-59 0 -98 40t-39 97z" />
<glyph unicode="&#xc5;" horiz-adv-x="1343" d="M43 0l424 1389q-61 41 -61 137q0 90 71.5 153.5t196.5 63.5q131 0 199.5 -59.5t68.5 -155.5q0 -100 -72 -144l433 -1384h-338l-107 354h-395l-96 -354h-324zM506 588h305l-88 303q-14 47 -68 256h-4q-33 -152 -59 -250zM569 1530q0 -45 28 -76t75 -31q49 0 77.5 30 t28.5 79q0 47 -28.5 76.5t-77.5 29.5h-2q-47 0 -74 -30.5t-27 -77.5z" />
<glyph unicode="&#xc6;" horiz-adv-x="1777" d="M6 0l588 1380h1051v-256h-566l35 -293h522v-253h-481l43 -322h522v-256h-790l-49 377h-404l-149 -377h-322zM571 627h275l-41 334q-20 164 -25 200h-6q-37 -113 -72 -203z" />
<glyph unicode="&#xc7;" horiz-adv-x="1222" d="M72 672q0 342 214 536.5t539 194.5q231 0 338 -62l-63 -245q-119 51 -262 51q-195 0 -317 -118t-122 -341q0 -209 117 -329.5t324 -120.5q156 0 262 45l51 -246q-121 -57 -352 -60l-39 -67q61 -8 104 -49t43 -101q0 -92 -69.5 -135t-177.5 -43q-100 0 -166 41l41 115 q55 -33 112 -33q72 0 72 51q0 63 -160 76l82 158q-276 41 -423.5 225.5t-147.5 456.5z" />
<glyph unicode="&#xc8;" horiz-adv-x="1093" d="M137 0v1380h850v-256h-538v-286h507v-254h-507v-328h567v-256h-879zM227 1712h324l178 -254h-246z" />
<glyph unicode="&#xc9;" horiz-adv-x="1093" d="M137 0v1380h850v-256h-538v-286h507v-254h-507v-328h567v-256h-879zM422 1454l178 258h324l-256 -258h-246z" />
<glyph unicode="&#xca;" horiz-adv-x="1093" d="M137 0v1380h850v-256h-538v-286h507v-254h-507v-328h567v-256h-879zM254 1454l207 258h221l211 -258h-217l-103 135h-4l-100 -135h-215z" />
<glyph unicode="&#xcb;" horiz-adv-x="1093" d="M137 0v1380h850v-256h-538v-286h507v-254h-507v-328h567v-256h-879zM215 1597q0 59 40 99.5t99 40.5q55 0 94 -40t39 -100q0 -55 -38.5 -96t-94.5 -41h-2q-57 0 -97 41t-40 96zM631 1597q0 59 40 99.5t99 40.5q57 0 96 -40t39 -100q0 -55 -39 -96t-96 -41h-2 q-59 0 -98 40t-39 97z" />
<glyph unicode="&#xcc;" horiz-adv-x="583" d="M-61 1714h323l178 -256h-243zM137 0v1380h312v-1380h-312z" />
<glyph unicode="&#xcd;" horiz-adv-x="583" d="M137 0v1380h312v-1380h-312zM145 1454l179 258h323l-258 -258h-244z" />
<glyph unicode="&#xce;" horiz-adv-x="583" d="M-25 1454l207 258h221l209 -258h-215l-102 135h-4l-103 -135h-213zM137 0v1380h312v-1380h-312z" />
<glyph unicode="&#xcf;" horiz-adv-x="583" d="M-55 1597q0 59 41 99.5t100 40.5q55 0 95 -40t40 -100q0 -55 -40 -96t-95 -41h-2q-57 0 -98 41t-41 96zM137 0v1380h312v-1380h-312zM365 1597q0 59 38.5 99.5t98.5 40.5q57 0 96 -40t39 -100q0 -55 -39 -96t-96 -41h-2q-59 0 -97 40t-38 97z" />
<glyph unicode="&#xd0;" horiz-adv-x="1441" d="M6 582v243h146v539q172 31 419 31q379 0 566 -144q233 -174 233 -526q0 -369 -227 -563q-213 -180 -637 -180q-184 0 -354 18v582h-146zM463 231q27 -6 108 -6q221 0 345 122t124 368q0 219 -114.5 329.5t-321.5 110.5q-88 0 -141 -12v-318h274v-243h-274v-351z" />
<glyph unicode="&#xd1;" horiz-adv-x="1413" d="M135 0v1380h363l288 -506q121 -211 226 -473h4q-23 223 -23 578v401h285v-1380h-326l-297 532q-152 270 -239 488h-8q14 -258 14 -604v-416h-287zM420 1464q-4 125 38 189.5t117 64.5q66 0 134 -41q66 -39 92 -39t37.5 18.5t17.5 69.5h137q8 -250 -159 -249 q-63 0 -134 39q-66 37 -90 36q-43 0 -49 -88h-141z" />
<glyph unicode="&#xd2;" horiz-adv-x="1468" d="M72 680q0 313 185 518t486 205q307 0 481.5 -199.5t174.5 -498.5q0 -338 -185.5 -533t-490.5 -195h-2q-299 0 -474 200t-175 503zM377 1714h323l179 -256h-246zM399 688q0 -201 90.5 -332t243.5 -131h2q156 0 244 131t88 338q0 195 -88 328t-243.5 133t-246 -133 t-90.5 -334z" />
<glyph unicode="&#xd3;" horiz-adv-x="1468" d="M72 680q0 313 185 518t486 205q307 0 481.5 -199.5t174.5 -498.5q0 -338 -185.5 -533t-490.5 -195h-2q-299 0 -474 200t-175 503zM399 688q0 -201 90.5 -332t243.5 -131h2q156 0 244 131t88 338q0 195 -88 328t-243.5 133t-246 -133t-90.5 -334zM600 1454l180 258h324 l-258 -258h-246z" />
<glyph unicode="&#xd4;" horiz-adv-x="1468" d="M72 680q0 313 185 518t486 205q307 0 481.5 -199.5t174.5 -498.5q0 -338 -185.5 -533t-490.5 -195h-2q-299 0 -474 200t-175 503zM399 688q0 -201 90.5 -332t243.5 -131h2q156 0 244 131t88 338q0 195 -88 328t-243.5 133t-246 -133t-90.5 -334zM416 1454l209 258h221 l211 -258h-217l-103 135h-4l-102 -135h-215z" />
<glyph unicode="&#xd5;" horiz-adv-x="1468" d="M72 680q0 313 185 518t484 205q307 0 482.5 -199.5t175.5 -498.5q0 -338 -185.5 -533t-490.5 -195h-2q-299 0 -474 200t-175 503zM399 688q0 -201 89.5 -332t242.5 -131h2q156 0 245 131t89 338q0 195 -89 328t-244.5 133t-245 -133t-89.5 -334zM449 1464 q-4 125 37.5 189.5t117.5 64.5q63 0 131 -41q66 -39 92.5 -39t38 18.5t17.5 69.5h139q6 -250 -162 -249q-63 0 -133 39q-66 37 -88 36q-43 0 -49 -88h-141z" />
<glyph unicode="&#xd6;" horiz-adv-x="1468" d="M72 680q0 315 185 519t486 204q307 0 481.5 -199.5t174.5 -498.5q0 -338 -185.5 -533t-490.5 -195h-2q-299 0 -474 200t-175 503zM389 1597q0 59 41 99.5t100 40.5q55 0 94.5 -40t39.5 -100q0 -55 -39 -96t-95 -41h-2q-57 0 -98 41t-41 96zM399 688q0 -201 90.5 -332 t243.5 -131h2q154 0 242 130t88 339q0 195 -88 328t-243.5 133t-245 -133t-89.5 -334zM805 1597q0 59 40 99.5t99 40.5q57 0 96 -40t39 -100q0 -55 -39 -96t-96 -41h-2q-59 0 -98 40t-39 97z" />
<glyph unicode="&#xd7;" horiz-adv-x="1220" d="M82 137l393 402l-393 401l133 137l395 -403l396 403l133 -137l-394 -401l394 -402l-135 -137l-394 401l-393 -401z" />
<glyph unicode="&#xd8;" horiz-adv-x="1468" d="M72 688q0 307 185 511t480 204q172 0 305 -72l113 166l178 -119l-114 -172q180 -197 180 -508q0 -332 -185.5 -526.5t-476.5 -194.5q-162 0 -297 70l-125 -182l-168 131l115 174q-190 201 -190 518zM385 690q0 -135 53 -254l2 2l459 670q-70 51 -162 51q-164 0 -258 -130 t-94 -339zM586 270q57 -49 149 -49q162 0 256 130t94 341q0 125 -45 236h-4z" />
<glyph unicode="&#xd9;" horiz-adv-x="1396" d="M135 610v770h311v-792q0 -178 64.5 -269.5t185.5 -91.5q254 0 254 361v792h312v-774q0 -313 -149.5 -471t-426.5 -158q-551 0 -551 633zM352 1714h324l178 -256h-246z" />
<glyph unicode="&#xda;" horiz-adv-x="1396" d="M135 610v770h311v-792q0 -178 64.5 -269.5t185.5 -91.5q254 0 254 361v792h312v-774q0 -313 -149.5 -471t-426.5 -158q-551 0 -551 633zM559 1454l180 258h322l-256 -258h-246z" />
<glyph unicode="&#xdb;" horiz-adv-x="1396" d="M135 610v770h311v-792q0 -178 64.5 -269.5t185.5 -91.5q254 0 254 361v792h312v-774q0 -313 -149.5 -471t-426.5 -158q-551 0 -551 633zM401 1454l209 258h221l209 -258h-217l-100 135h-4l-103 -135h-215z" />
<glyph unicode="&#xdc;" horiz-adv-x="1396" d="M135 610v770h311v-792q0 -178 64.5 -269.5t185.5 -91.5q254 0 254 361v792h312v-774q0 -313 -149.5 -471t-426.5 -158q-551 0 -551 633zM365 1597q0 59 40.5 99.5t100.5 40.5q55 0 94 -40t39 -100q0 -55 -39 -96t-94 -41h-2q-59 0 -99 41t-40 96zM780 1597q0 59 40 99.5 t100 40.5q57 0 96 -40t39 -100q0 -55 -39 -96t-96 -41h-2q-59 0 -98.5 40t-39.5 97z" />
<glyph unicode="&#xdd;" horiz-adv-x="1234" d="M18 1380h359l139 -331q70 -160 107 -265h4q33 94 104 265l139 331h351l-455 -805v-575h-311v565zM502 1454l178 258h324l-259 -258h-243z" />
<glyph unicode="&#xde;" horiz-adv-x="1187" d="M135 0v1380h307v-247q78 8 170 8q248 0 379 -111q133 -113 133 -299q0 -240 -150.5 -354.5t-389.5 -114.5q-70 0 -142 10v-272h-307zM442 516q45 -12 129 -12q121 0 183.5 55t62.5 148q0 94 -62.5 145t-176.5 51q-94 0 -136 -10v-377z" />
<glyph unicode="&#xdf;" horiz-adv-x="1228" d="M125 0v883q0 319 158 465q135 129 370 129q188 0 313.5 -104.5t125.5 -274.5q0 -106 -50 -168q-119 -57 -118 -144q0 -61 71 -135q51 -55 77 -84.5t55.5 -97.5t29.5 -139q0 -160 -109.5 -256.5t-302.5 -96.5q-135 0 -219 33l39 230q57 -29 144 -29q63 0 100 29.5t37 74.5 q0 63 -76 142q-53 57 -74.5 80.5t-52.5 86t-31 124.5q0 166 166 253q14 31 15 74q0 72 -44 118t-116 46q-197 0 -197 -330v-909h-311z" />
<glyph unicode="&#xe0;" horiz-adv-x="1081" d="M59 285q0 190 157 286.5t431 96.5v12q0 129 -182 129q-152 0 -277 -74l-57 199q162 90 389 90q233 0 335.5 -119t102.5 -313v-350q0 -168 17 -242h-281l-18 100h-6q-100 -123 -287 -123q-145 0 -234.5 91.5t-89.5 216.5zM205 1434h287l176 -312h-213zM367 315 q0 -57 33.5 -87.5t89 -30.5t100.5 32.5t61 81.5q6 25 6 54v108q-290 0 -290 -158z" />
<glyph unicode="&#xe1;" horiz-adv-x="1081" d="M59 285q0 190 157 286.5t431 96.5v12q0 129 -182 129q-152 0 -277 -74l-57 199q162 90 389 90q233 0 335.5 -119t102.5 -313v-350q0 -168 17 -242h-281l-18 100h-6q-100 -123 -287 -123q-145 0 -234.5 91.5t-89.5 216.5zM367 315q0 -57 33.5 -87.5t89 -30.5t100.5 32.5 t61 81.5q6 25 6 54v108q-290 0 -290 -158zM399 1122l176 312h287l-250 -312h-213z" />
<glyph unicode="&#xe2;" horiz-adv-x="1081" d="M59 285q0 190 157 286.5t431 96.5v12q0 129 -182 129q-152 0 -277 -74l-57 199q162 90 389 90q233 0 335.5 -119t102.5 -313v-350q0 -168 17 -242h-281l-18 100h-6q-100 -123 -287 -123q-145 0 -234.5 91.5t-89.5 216.5zM231 1122l203 312h197l203 -312h-197l-102 176h-5 l-102 -176h-197zM367 315q0 -57 33.5 -87.5t89 -30.5t100.5 32.5t61 81.5q6 25 6 54v108q-290 0 -290 -158z" />
<glyph unicode="&#xe3;" horiz-adv-x="1081" d="M59 285q0 190 157 286.5t431 96.5v12q0 129 -182 129q-152 0 -277 -74l-57 199q162 90 389 90q233 0 335.5 -119t102.5 -313v-350q0 -168 17 -242h-281l-18 100h-6q-100 -123 -287 -123q-145 0 -234.5 91.5t-89.5 216.5zM238 1139q-2 121 38.5 188.5t118.5 67.5 q53 0 135 -43q61 -39 88 -39t39.5 19.5t16.5 70.5h135q6 -250 -160 -250q-61 0 -143 47q-55 31 -80 31q-43 0 -49 -92h-139zM367 315q0 -57 33.5 -87.5t89 -30.5t100.5 32.5t61 81.5q6 25 6 54v108q-290 0 -290 -158z" />
<glyph unicode="&#xe4;" horiz-adv-x="1081" d="M59 285q0 190 157 286.5t431 96.5v12q0 129 -182 129q-152 0 -277 -74l-57 199q162 90 389 90q233 0 335.5 -119t102.5 -313v-350q0 -168 17 -242h-281l-18 100h-6q-100 -123 -287 -123q-145 0 -234.5 91.5t-89.5 216.5zM193 1260q0 59 40.5 99t100.5 40q57 0 96 -40 t39 -99q0 -57 -39 -98.5t-96 -41.5h-2q-57 0 -98 41.5t-41 98.5zM367 315q0 -57 33.5 -87.5t89 -30.5t100.5 32.5t61 81.5q6 25 6 54v108q-290 0 -290 -158zM610 1260q0 59 40 99t99.5 40t98.5 -40t39 -99q0 -57 -39 -98.5t-98 -41.5h-2q-59 0 -98.5 41.5t-39.5 98.5z" />
<glyph unicode="&#xe5;" horiz-adv-x="1081" d="M59 285q0 190 157 286.5t431 96.5v12q0 129 -182 129q-152 0 -277 -74l-57 199q162 90 389 90q233 0 335.5 -119t102.5 -313v-350q0 -168 17 -242h-281l-18 100h-6q-100 -123 -287 -123q-145 0 -234.5 91.5t-89.5 216.5zM309 1300q0 90 62.5 147.5t173.5 57.5h2 q109 0 169 -56t60 -146q0 -88 -63.5 -144.5t-167.5 -56.5q-106 0 -171 56t-65 142zM367 315q0 -57 33.5 -87.5t89 -30.5t100.5 32.5t61 81.5q6 25 6 54v108q-290 0 -290 -158zM453 1300q0 -39 24.5 -67.5t65.5 -28.5q45 0 69.5 29t24.5 69.5t-24.5 70.5t-67.5 30h-2 q-43 0 -66.5 -30t-23.5 -73z" />
<glyph unicode="&#xe6;" horiz-adv-x="1644" d="M59 293q0 180 160 275.5t432 93.5v28q0 20 -13 44t-60.5 49.5t-118.5 25.5q-143 0 -266 -74l-62 197q170 94 354 94q236 0 330 -162h6q123 162 342 162q207 0 313.5 -147.5t106.5 -348.5q0 -8 -8 -114l-633 2q2 -94 77 -150.5t193 -56.5q154 0 281 53l43 -209 q-145 -76 -369 -75q-127 0 -229 47t-154 131h-6q-131 -178 -372 -178q-160 0 -253.5 90t-93.5 223zM365 315q0 -55 35.5 -85.5t91.5 -30.5q113 0 159 104q8 25 8 64v104q-294 4 -294 -156zM940 629h356q2 68 -36.5 130t-133.5 62q-88 0 -136 -62t-50 -130z" />
<glyph unicode="&#xe7;" horiz-adv-x="923" d="M68 494q0 227 151.5 378.5t421.5 151.5q137 0 238 -39l-48 -233q-70 33 -176 32q-123 0 -196.5 -78.5t-71.5 -201.5q0 -133 78 -208t197 -75q102 0 180 33l41 -229q-104 -43 -248 -45l-39 -70q61 -8 104 -49t43 -101q0 -92 -70.5 -135t-178.5 -43q-98 0 -164 41l41 115 q55 -33 110 -33q74 0 74 53q0 61 -160 74l80 158q-190 33 -298.5 166t-108.5 338z" />
<glyph unicode="&#xe8;" horiz-adv-x="1081" d="M68 492q0 211 132 372.5t373 161.5q225 0 336 -145.5t111 -354.5q0 -63 -10 -125l-645 2q8 -94 86.5 -143t195.5 -49q152 0 277 43l41 -211q-152 -63 -363 -63q-254 0 -394 137t-140 375zM246 1434h286l177 -312h-213zM362 616h369q0 74 -40 138.5t-134 64.5 q-90 0 -138.5 -63.5t-56.5 -139.5z" />
<glyph unicode="&#xe9;" horiz-adv-x="1081" d="M68 492q0 211 132 372.5t373 161.5q225 0 336 -145.5t111 -354.5q0 -63 -10 -125l-645 2q8 -94 86.5 -143t195.5 -49q152 0 277 43l41 -211q-152 -63 -363 -63q-254 0 -394 137t-140 375zM362 616h369q0 74 -40 138.5t-134 64.5q-90 0 -138.5 -63.5t-56.5 -139.5z M440 1122l176 312h287l-250 -312h-213z" />
<glyph unicode="&#xea;" horiz-adv-x="1081" d="M68 492q0 211 132 372.5t373 161.5q225 0 336 -145.5t111 -354.5q0 -63 -10 -125l-645 2q8 -94 86.5 -143t195.5 -49q152 0 277 43l41 -211q-152 -63 -363 -63q-254 0 -394 137t-140 375zM262 1122l203 312h197l202 -312h-196l-103 176h-4l-102 -176h-197zM362 616h369 q0 74 -40 138.5t-134 64.5q-90 0 -138.5 -63.5t-56.5 -139.5z" />
<glyph unicode="&#xeb;" horiz-adv-x="1081" d="M68 492q0 211 132 372.5t373 161.5q225 0 336 -145.5t111 -354.5q0 -63 -10 -125l-645 2q8 -94 86.5 -143t195.5 -49q152 0 277 43l41 -211q-152 -63 -363 -63q-254 0 -394 137t-140 375zM227 1260q0 59 41 99t101 40q57 0 96 -40t39 -99q0 -57 -39 -98.5t-96 -41.5h-2 q-57 0 -98.5 41.5t-41.5 98.5zM362 616h369q0 74 -40 138.5t-134 64.5q-90 0 -138.5 -63.5t-56.5 -139.5zM645 1260q0 59 40 99t99.5 40t98.5 -40t39 -99q0 -57 -39 -98.5t-99 -41.5h-2q-59 0 -98 41.5t-39 98.5z" />
<glyph unicode="&#xec;" horiz-adv-x="561" d="M-61 1434h286l176 -312h-213zM125 0v1001h311v-1001h-311z" />
<glyph unicode="&#xed;" horiz-adv-x="561" d="M125 0v1001h311v-1001h-311zM152 1122l176 312h286l-249 -312h-213z" />
<glyph unicode="&#xee;" horiz-adv-x="561" d="M-20 1122l202 312h197l203 -312h-197l-102 176h-4l-103 -176h-196zM125 0v1001h311v-1001h-311z" />
<glyph unicode="&#xef;" horiz-adv-x="561" d="M-68 1260q0 59 41 99t101 40q57 0 96 -40t39 -99q0 -57 -39 -98.5t-96 -41.5h-2q-57 0 -98.5 41.5t-41.5 98.5zM125 0v1001h311v-1001h-311zM350 1260q0 59 40 99t99.5 40t98.5 -40t39 -99q0 -57 -39 -98.5t-99 -41.5h-2q-59 0 -98 41.5t-39 98.5z" />
<glyph unicode="&#xf0;" horiz-adv-x="1175" d="M70 485q0 213 137 346.5t338 137.5q82 4 145 -41l4 6q-78 104 -178 172l-295 -127l-55 123l215 96q-70 45 -191 98l134 174q168 -59 323 -161l283 121l61 -119l-215 -94q160 -129 250 -310q84 -162 84 -381q0 -266 -152.5 -407.5t-369.5 -141.5q-223 0 -370.5 139.5 t-147.5 368.5zM389 487q0 -123 53.5 -204.5t145.5 -81.5h2q94 0 145 79.5t51 215.5q0 154 -49 215q-53 68 -145 67q-104 0 -153.5 -89t-49.5 -202z" />
<glyph unicode="&#xf1;" horiz-adv-x="1200" d="M117 1001h270l14 -139h7q39 63 117.5 112.5t191.5 49.5q162 0 260 -109.5t98 -322.5v-592h-311v555q0 217 -158 217q-115 0 -160 -117q-10 -25 -10 -77v-578h-311v682q0 139 -8 319zM319 1139q-2 121 39 188.5t119 67.5q53 0 135 -43q61 -39 88 -39t39.5 19.5t16.5 70.5 h135q6 -250 -160 -250q-61 0 -143 47q-55 31 -80 31q-43 0 -49 -92h-140z" />
<glyph unicode="&#xf2;" horiz-adv-x="1181" d="M68 494q0 242 146 386t390 144q227 0 368.5 -143.5t141.5 -370.5q0 -258 -154.5 -395.5t-371.5 -137.5h-2q-225 0 -371.5 139.5t-146.5 377.5zM272 1434h287l176 -312h-213zM387 500q0 -131 53.5 -215t149.5 -84h2q92 0 145.5 82t53.5 219q0 123 -50.5 211t-148.5 88 q-102 0 -153.5 -88t-51.5 -213z" />
<glyph unicode="&#xf3;" horiz-adv-x="1181" d="M68 494q0 242 146 386t390 144q227 0 368.5 -143.5t141.5 -370.5q0 -258 -154.5 -395.5t-371.5 -137.5h-2q-225 0 -371.5 139.5t-146.5 377.5zM387 500q0 -131 53.5 -215t149.5 -84h2q92 0 145.5 82t53.5 219q0 123 -50.5 211t-148.5 88q-102 0 -153.5 -88t-51.5 -213z M455 1122l176 312h287l-250 -312h-213z" />
<glyph unicode="&#xf4;" horiz-adv-x="1181" d="M68 494q0 242 146 386t390 144q227 0 368.5 -143.5t141.5 -370.5q0 -258 -154.5 -395.5t-371.5 -137.5h-2q-225 0 -371.5 139.5t-146.5 377.5zM291 1122l203 312h196l203 -312h-197l-102 176h-4l-103 -176h-196zM387 500q0 -131 53.5 -215t149.5 -84h2q92 0 145.5 82 t53.5 219q0 123 -50.5 211t-148.5 88q-102 0 -153.5 -88t-51.5 -213z" />
<glyph unicode="&#xf5;" horiz-adv-x="1181" d="M68 494q0 242 146 386t390 144q227 0 368.5 -143.5t141.5 -370.5q0 -258 -154.5 -395.5t-371.5 -137.5h-2q-225 0 -371.5 139.5t-146.5 377.5zM307 1139q-2 121 39 188.5t119 67.5q53 0 135 -43q61 -39 88 -39t39 19.5t16 70.5h136q6 -250 -160 -250q-61 0 -144 47 q-55 31 -79 31q-43 0 -50 -92h-139zM387 500q0 -131 53.5 -215t149.5 -84h2q92 0 145.5 82t53.5 219q0 123 -50.5 211t-148.5 88q-102 0 -153.5 -88t-51.5 -213z" />
<glyph unicode="&#xf6;" horiz-adv-x="1181" d="M68 494q0 242 146 386t390 144q227 0 368.5 -143.5t141.5 -370.5q0 -258 -154.5 -395.5t-371.5 -137.5h-2q-225 0 -371.5 139.5t-146.5 377.5zM244 1260q0 59 41 99t100 40q57 0 96 -40t39 -99q0 -57 -39 -98.5t-96 -41.5h-2q-57 0 -98 41.5t-41 98.5zM387 500 q0 -131 53.5 -215t149.5 -84h2q92 0 145.5 82t53.5 219q0 123 -50.5 211t-148.5 88q-102 0 -153.5 -88t-51.5 -213zM662 1260q0 59 39.5 99t99 40t98.5 -40t39 -99q0 -57 -39 -98.5t-98 -41.5h-2q-59 0 -98 41.5t-39 98.5z" />
<glyph unicode="&#xf7;" horiz-adv-x="1220" d="M80 451v190h1057v-190h-1057zM459 186.5q0 67.5 41 109.5t108.5 42t107.5 -41t42 -111q0 -68 -41 -109.5t-109 -41.5h-2q-66 0 -106.5 42t-40.5 109.5zM461 905q0 70 42 111t107 41q68 0 108 -41t42 -111q0 -68 -41 -109.5t-109 -41.5h-2q-66 0 -106.5 41.5t-40.5 109.5z " />
<glyph unicode="&#xf8;" horiz-adv-x="1181" d="M68 498q0 236 144 381t378 145h2q131 0 242 -53l96 139l108 -74l-94 -137q168 -145 168 -395q0 -252 -153.5 -389.5t-366.5 -137.5q-137 0 -238 54l-100 -146l-102 82l90 133q-174 142 -174 398zM369 500q0 -92 34 -160h7l292 424q-47 37 -112 37q-113 0 -167 -90 t-54 -211zM487 238q39 -37 105 -37q102 0 162.5 80.5t60.5 214.5q0 90 -33 155l-4 2z" />
<glyph unicode="&#xf9;" horiz-adv-x="1193" d="M121 414v587h311v-538q0 -233 158 -234q59 0 99 33t56 76q12 27 13 68v595h311v-679q0 -154 8 -322h-270l-14 141h-7q-104 -164 -313 -164q-162 0 -257 108t-95 329zM262 1434h287l176 -312h-213z" />
<glyph unicode="&#xfa;" horiz-adv-x="1193" d="M121 414v587h311v-538q0 -233 158 -234q59 0 99 33t56 76q12 27 13 68v595h311v-679q0 -154 8 -322h-270l-14 141h-7q-104 -164 -313 -164q-162 0 -257 108t-95 329zM469 1122l176 312h287l-250 -312h-213z" />
<glyph unicode="&#xfb;" horiz-adv-x="1193" d="M121 414v587h311v-538q0 -233 158 -234q59 0 99 33t56 76q12 27 13 68v595h311v-679q0 -154 8 -322h-270l-14 141h-7q-104 -164 -313 -164q-162 0 -257 108t-95 329zM297 1122l203 312h196l203 -312h-197l-102 176h-4l-102 -176h-197z" />
<glyph unicode="&#xfc;" horiz-adv-x="1193" d="M121 414v587h311v-538q0 -233 158 -234q59 0 99 33t56 76q12 27 13 68v595h311v-679q0 -154 8 -322h-270l-14 141h-7q-104 -164 -313 -164q-162 0 -257 108t-95 329zM256 1260q0 59 41 99t100 40q57 0 96 -40t39 -99q0 -57 -38.5 -98.5t-96.5 -41.5h-2q-57 0 -98 41.5 t-41 98.5zM674 1260q0 59 40 99t99 40t98 -40t39 -99q0 -57 -39 -98.5t-98 -41.5h-2q-59 0 -98 41.5t-39 98.5z" />
<glyph unicode="&#xfd;" horiz-adv-x="1071" d="M12 1001h346l150 -491q37 -137 49 -186h6q8 31 23.5 98t21.5 88l123 491h334l-234 -659q-102 -287 -183 -431t-169 -224q-135 -121 -301 -138l-65 263q66 14 135 53q80 43 129 125q16 27 16 45q0 23 -12 51zM434 1122l176 312h287l-250 -312h-213z" />
<glyph unicode="&#xfe;" horiz-adv-x="1224" d="M125 -406v1790h311v-505h4q98 145 299 145q170 4 293 -136t123 -378q0 -133 -41 -238.5t-107.5 -168t-144.5 -94.5t-157 -32q-176 0 -265 117h-4v-500h-311zM436 410q0 -57 29 -97q51 -96 162 -96q96 0 154.5 78t58.5 211q0 119 -55.5 196.5t-149.5 77.5 q-125 0 -178 -114q-20 -45 -21 -84v-172z" />
<glyph unicode="&#xff;" horiz-adv-x="1071" d="M12 1001h346l150 -491q37 -137 49 -186h6q8 31 23.5 98t21.5 88l123 491h334l-234 -659q-102 -287 -183 -431t-169 -224q-135 -121 -301 -138l-65 263q66 14 135 53q80 43 129 125q16 27 16 45q0 23 -12 51zM213 1260q0 59 41 99t100 40q57 0 96 -40t39 -99 q0 -57 -38.5 -98.5t-96.5 -41.5h-2q-57 0 -98 41.5t-41 98.5zM631 1260q0 59 40 99t99 40t98 -40t39 -99q0 -57 -39 -98.5t-98 -41.5h-2q-59 0 -98 41.5t-39 98.5z" />
<glyph unicode="&#x152;" horiz-adv-x="1916" d="M72 678q0 330 191.5 527.5t506.5 197.5q86 0 184 -12q127 -10 129 -11h725v-256h-538v-286h508v-254h-508v-328h567v-256h-778q-31 0 -125 -12q-119 -10 -170 -11q-336 0 -514 201t-178 500zM401 690q0 -209 111 -337t307 -128q86 0 139 25v876q-61 29 -161 29 q-170 0 -283 -123t-113 -342z" />
<glyph unicode="&#x153;" horiz-adv-x="1777" d="M68 502q0 233 143 378.5t367 145.5q113 0 208 -46t144 -132h4q123 178 348 178q115 0 202 -43t136 -115.5t73.5 -157.5t24.5 -182q0 -31 -8 -120l-633 2q6 -90 83 -144.5t190 -54.5q137 0 278 53l43 -209q-137 -76 -364 -75q-246 0 -369 178h-6q-121 -178 -375 -178 q-209 0 -349 141t-140 381zM389 504q0 -131 53.5 -216t147.5 -85t146 82t52 221q0 127 -49 212t-145 85h-2q-106 0 -154.5 -88t-48.5 -211zM1071 621h356q0 74 -36.5 135t-137.5 61q-86 0 -133 -62t-49 -134z" />
<glyph unicode="&#x178;" horiz-adv-x="1234" d="M18 1380h359l139 -331q70 -160 107 -265h4q33 94 104 265l139 331h351l-455 -805v-575h-311v565zM287 1597q0 59 41 99.5t100 40.5q55 0 94 -40t39 -100q0 -55 -39 -96t-94 -41h-2q-57 0 -98 41t-41 96zM705 1597q0 59 39.5 99.5t99.5 40.5q57 0 96 -40t39 -100 q0 -55 -39 -96t-96 -41h-2q-59 0 -98 40t-39 97z" />
<glyph unicode="&#x2c6;" horiz-adv-x="614" d="M6 1122l203 312h197l202 -312h-196l-103 176h-4l-102 -176h-197z" />
<glyph unicode="&#x2dc;" horiz-adv-x="614" d="M23 1139q-2 121 38.5 188.5t118.5 67.5q53 0 135 -43q61 -39 88 -39t39.5 19.5t16.5 70.5h135q6 -250 -160 -250q-61 0 -143 47q-55 31 -80 31q-43 0 -49 -92h-139z" />
<glyph unicode="&#x2013;" horiz-adv-x="1024" d="M61 424v192h902v-192h-902z" />
<glyph unicode="&#x2014;" horiz-adv-x="2048" d="M61 424v192h1926v-192h-1926z" />
<glyph unicode="&#x2018;" horiz-adv-x="532" d="M55 846q98 311 246 555l188 16q-100 -287 -143 -553z" />
<glyph unicode="&#x2019;" horiz-adv-x="532" d="M53 846q102 293 144 553l290 18q-102 -317 -245 -553z" />
<glyph unicode="&#x201a;" horiz-adv-x="532" d="M33 -213q100 287 143 553l291 18q-98 -311 -246 -555z" />
<glyph unicode="&#x201c;" horiz-adv-x="929" d="M51 846q94 301 246 555l188 16q-100 -287 -143 -553zM453 846q98 311 245 555l189 16q-98 -270 -144 -553z" />
<glyph unicode="&#x201d;" horiz-adv-x="929" d="M49 846q98 274 144 553l290 18q-102 -317 -245 -553zM451 846q102 293 143 553l291 18q-98 -307 -246 -553z" />
<glyph unicode="&#x201e;" horiz-adv-x="940" d="M31 -213q98 270 143 553l291 18q-98 -311 -246 -555zM432 -213q100 287 143 553l291 18q-94 -301 -245 -555z" />
<glyph unicode="&#x2022;" horiz-adv-x="692" d="M80 702q-2 113 77 191t189.5 78t188 -78t77.5 -190.5t-76.5 -189.5t-189.5 -77h-2q-111 0 -187.5 76.5t-76.5 189.5z" />
<glyph unicode="&#x2026;" horiz-adv-x="2048" d="M158 166q0 84 51 137t133 53q80 0 130 -52t52 -138q0 -82 -51 -135.5t-133 -53.5h-2q-78 0 -129 53.5t-51 135.5zM840 166q0 84 51 137t133 53q80 0 130 -52t52 -138q0 -82 -51 -135.5t-133 -53.5h-2q-78 0 -129 53.5t-51 135.5zM1522 166q0 84 51 137t133 53 q80 0 130 -52t52 -138q0 -82 -51 -135.5t-133 -53.5h-2q-78 0 -129 53.5t-51 135.5z" />
<glyph unicode="&#x2039;" horiz-adv-x="552" d="M53 516l238 391h217l-246 -391l246 -389h-217z" />
<glyph unicode="&#x203a;" horiz-adv-x="552" d="M45 127l246 389l-246 391h215l240 -391l-240 -389h-215z" />
<glyph unicode="&#x20ac;" d="M37 508l39 90h88q-2 18 -2 64q0 39 2 55h-127l39 90h94q33 272 157 409.5t373 137.5q236 0 334 -99l13 -184h-50q-29 184 -231 184q-137 0 -204.5 -113.5t-86.5 -334.5h467l-39 -90h-432v-60v-59h379l-39 -90h-338q14 -209 90 -320.5t207 -111.5q88 0 149.5 45t77.5 137 h50l-13 -178q-100 -100 -334 -100q-242 0 -368.5 133t-155.5 395h-139z" />
<glyph unicode="&#x2122;" horiz-adv-x="1775" d="M33 1217v163h653v-163h-229v-650h-199v650h-225zM733 567l55 813h273l90 -317q12 -41 30.5 -123t26.5 -111h4q61 219 66 236l98 315h256l54 -813h-195l-18 387q-2 41 -3.5 133.5t-3.5 143.5h-4q-31 -129 -76 -277l-118 -372h-154l-104 379q-8 35 -31 127t-35 143h-4 q-6 -260 -6 -273l-21 -391h-180z" />
<glyph unicode="&#xe000;" horiz-adv-x="1000" d="M0 1000h1000v-1000h-1000v1000z" />
<glyph unicode="&#xfb01;" horiz-adv-x="1204" d="M29 772v229h133v43q0 203 143.5 318t378.5 115q193 0 295 -62l-59 -235q-94 51 -228 51q-221 0 -221 -195v-35h608v-1001h-311v772h-295v-772h-311v772h-133z" />
<glyph unicode="&#xfb02;" horiz-adv-x="1204" d="M29 772v229h133v43q0 88 40 175.5t111 144.5q141 113 381 113q227 0 385 -84v-1393h-311v1225q-37 20 -119 20q-90 0 -134 -56t-44 -149v-39h182v-229h-180v-772h-311v772h-133z" />
<glyph unicode="&#xfb03;" horiz-adv-x="1957" d="M1503 1298q0 72 49.5 119t127 47t125 -47t49.5 -119q0 -72 -48.5 -118.5t-127.5 -46.5h-2q-78 0 -125.5 47.5t-47.5 117.5zM1522 0v1001h311v-1001h-311zM727 772v229h133v39q0 219 125 336q109 100 278 101q78 0 164 -21l-12 -239q-47 14 -101 14q-74 0 -109.5 -49 t-35.5 -129v-52h201v-229h-199v-772h-311v772h-133zM29 772v229h133v39q0 219 125 336q109 100 278 101q78 0 164 -21l-12 -239q-47 14 -101 14q-74 0 -109.5 -49t-35.5 -129v-52h201v-229h-199v-772h-311v772h-133z" />
<glyph unicode="&#xfb04;" horiz-adv-x="1957" d="M1522 0v1454h311v-1454h-311zM727 772v229h133v39q0 219 125 336q109 100 278 101q78 0 164 -21l-12 -239q-47 14 -101 14q-74 0 -109.5 -49t-35.5 -129v-52h201v-229h-199v-772h-311v772h-133zM29 772v229h133v39q0 219 125 336q109 100 278 101q78 0 164 -21l-12 -239 q-47 14 -101 14q-74 0 -109.5 -49t-35.5 -129v-52h201v-229h-199v-772h-311v772h-133z" />
</font>
</defs>
</svg>
